inDegrees=no
num_controls=7
num_derivatives=13
num_iterations=96
num_multipliers=7
num_parameters=0
num_slacks=7
num_states=26
objective=0.444896
objective_accelerations=0.058708
objective_balance=0.003466
objective_effort=0.023247
objective_height=0.354007
objective_ligament=0.005468
solver_duration=1393.735044
status=Solve_Succeeded
success=true
DataType=double
version=3
OpenSimVersion=4.5
endheader
time	/jointset/ground_pelvis/pelvis_tilt/value	/jointset/ground_pelvis/pelvis_tx/value	/jointset/ground_pelvis/pelvis_ty/value	/jointset/hip_l/hip_flexion_l/value	/jointset/hip_l/hip_adduction_l/value	/jointset/hip_l/hip_rotation_l/value	/jointset/back/lumbar_extension/value	/jointset/patellofemoral_l/patellar_flexion_l/value	/jointset/knee_l/knee_flexion_l/value	/jointset/knee_l/knee_adduction_l/value	/jointset/knee_l/knee_rotation_l/value	/jointset/ankle_l/ankle_angle_l/value	/jointset/subtalar_l/subtalar_angle_l/value	/jointset/ground_pelvis/pelvis_tilt/speed	/jointset/ground_pelvis/pelvis_tx/speed	/jointset/ground_pelvis/pelvis_ty/speed	/jointset/hip_l/hip_flexion_l/speed	/jointset/hip_l/hip_adduction_l/speed	/jointset/hip_l/hip_rotation_l/speed	/jointset/back/lumbar_extension/speed	/jointset/patellofemoral_l/patellar_flexion_l/speed	/jointset/knee_l/knee_flexion_l/speed	/jointset/knee_l/knee_adduction_l/speed	/jointset/knee_l/knee_rotation_l/speed	/jointset/ankle_l/ankle_angle_l/speed	/jointset/subtalar_l/subtalar_angle_l/speed	/forceset/tau_hip_flexion_l	/forceset/tau_hip_adduction_l	/forceset/tau_hip_rotation_l	/forceset/tau_knee_flexion_l	/forceset/tau_ankle_angle_l	/forceset/tau_subtalar_angle_l	/forceset/tau_lumbar_extension	lambda_cid13_p0	lambda_cid13_p1	lambda_cid13_p2	lambda_cid13_p3	lambda_cid13_p4	lambda_cid13_p5	lambda_cid14_p0	/jointset/ground_pelvis/pelvis_tilt/accel	/jointset/ground_pelvis/pelvis_tx/accel	/jointset/ground_pelvis/pelvis_ty/accel	/jointset/hip_l/hip_flexion_l/accel	/jointset/hip_l/hip_adduction_l/accel	/jointset/hip_l/hip_rotation_l/accel	/jointset/back/lumbar_extension/accel	/jointset/patellofemoral_l/patellar_flexion_l/accel	/jointset/knee_l/knee_flexion_l/accel	/jointset/knee_l/knee_adduction_l/accel	/jointset/knee_l/knee_rotation_l/accel	/jointset/ankle_l/ankle_angle_l/accel	/jointset/subtalar_l/subtalar_angle_l/accel	gamma_cid13_p0	gamma_cid13_p1	gamma_cid13_p2	gamma_cid13_p3	gamma_cid13_p4	gamma_cid13_p5	gamma_cid14_p0
1.5	-0.3692261496553688	-0.02335772768662385	0.7590142377175223	1.116510272223813	-0.4347007214474222	-0.210337275143456	-0.2257255845021217	0.818232081766166	0.8182320817662387	-0.1247049918369372	-0.1467431068624513	0.1348101637735501	-0.01526688523864459	0.678238014230454	0.2703681365052039	0.545709187061619	-2.485106485636899	0.2078736410975722	-0.7239839925101912	0.3140231346410127	-2.050780347180057	-2.050780347180063	-0.1457297104075936	0.1315341549517001	-0.4150481815320938	0.02521325862876892	-0.1752587498244443	0.03405417744172476	-0.009149349583783778	-0.2051503872436382	0.04357897647827638	0.03875144476575638	0.1688637772837666	-18.15567113369628	-16.48503430429757	5.529595599577953	-7.799135551074735	-519.5868816594323	-56.68878362147749	-24.33054878333248	0.6937878128652871	0.7174454242580075	-0.532426310799835	-1.312288039987177	0.714810037682076	-0.2259864087256495	1.46857339482531	-1.334905765732634	-1.334905765732634	0.1381124343086142	0.210773458655349	-0.5255409170292089	0.5103033866406073	5.686100700027435e-07	1.988853280114763e-07	-3.589828236945887e-06	-2.23391897445634e-07	8.135167632589965e-07	-1.033069430683427e-07	5.069531511387482e-07
1.51	-0.362409169620746	-0.02061833568509529	0.7644436485299985	1.091595053899291	-0.4325880702833004	-0.2175847577434617	-0.222513393414912	0.7976596740290333	0.7976596740294604	-0.1261606803450024	-0.1454170533700595	0.1306336505284178	-0.01499142690556857	0.6850453848782745	0.2774843790639424	0.5400575066660585	-2.49759583965772	0.214627451828326	-0.7253787025568074	0.3283746850794305	-2.06341948692438	-2.063419486925313	-0.1454363534245219	0.1336899388344828	-0.4201705970676698	0.02988131170312358	-0.1686946371022641	0.03244505704272763	-0.008893723281056061	-0.2031516104306919	0.04484994614842804	0.03830799909220212	0.1635905340803641	-17.52589181836026	-16.4262601474536	5.547117730380283	-8.041287382211804	-515.5414687538749	-57.21728923199593	-25.26719550748993	0.657386364977306	0.7048059648416871	-0.5986921667678262	-1.165976835768783	0.6516386595814259	-0.0756540570990922	1.412386210157315	-1.186264226064322	-1.186264226203327	-0.02933222235629338	0.2193367821827512	-0.4930176012064166	0.4457801513967459	5.780954509691895e-07	4.513407752348723e-07	-3.370315391575845e-06	-1.58441013706473e-07	8.278683205066829e-07	1.343479347747338e-08	5.127446162411484e-07
1.52	-0.3555274809447974	-0.01780856279934736	0.7698131118859523	1.066565198484033	-0.4304086865981093	-0.2248420755948285	-0.2191588987549566	0.776969305665	0.7769693056657738	-0.1276142911937664	-0.144069170853024	0.1264084279820526	-0.01466914326503627	0.6911797424955703	0.2844443133490787	0.5337196957571426	-2.508033903784113	0.2212201453114568	-0.7259510427822045	0.3424838491901395	-2.07437247255999	-2.07437247256185	-0.1453141785479609	0.1358999598809858	-0.4247900417786311	0.03457832012003147	-0.1621305243800909	0.0308359366437255	-0.008638096978303081	-0.2011528336177487	0.04612091581857802	0.0378645534186406	0.1583172908769575	-16.89750344291419	-16.36687713963019	5.564127823368124	-8.324418216837797	-511.5458154738411	-57.8083491278537	-26.2029175925004	0.5591852067603763	0.6861837695375592	-0.6696524134709173	-0.902030061101707	0.6825865881574856	-0.06151244448183132	1.420096129283551	-0.9976749439899958	-0.9976749439900047	0.1038760130064588	0.2216208913994059	-0.424946752106285	0.5160944551512402	5.308595324620617e-07	7.652221822894551e-07	-2.78044049209808e-06	-5.032256900955284e-08	7.678724572541448e-07	1.144471792648765e-07	4.779337722912896e-07
1.53	-0.3485877993315658	-0.01493032374983082	0.7751157585515439	1.041441864987514	-0.4281637519679114	-0.2321039241180878	-0.2156644736096151	0.7561782866489051	0.7561782866490352	-0.1290645987446311	-0.1427006487100945	0.1221394052462679	-0.01429924272820671	0.6966610942270954	0.2911430771089376	0.5266956522410001	-2.516256270996092	0.2277414065002608	-0.7263103504604659	0.3563482261141924	-2.083522937687544	-2.083522937688305	-0.1447380521516964	0.1377938707539476	-0.4289537725518278	0.03939694424248293	-0.1565952660079043	0.03091384188787171	-0.008220841262785919	-0.1970977523229478	0.044586237883532	0.03673868077785998	0.1536867286820495	-17.19208185211918	-15.82691039596259	5.478702428523301	-7.574826729702931	-507.5568039480665	-57.52975274683455	-27.13737587188153	0.528299033052907	0.6526969818043502	-0.7357671939885452	-0.7258417101943101	0.6330801936424956	-0.006566593829354365	1.36166540940671	-0.8275450016870676	-0.8275450015221608	0.03605103910863134	0.1714013525586004	-0.4029310002929474	0.463952648812723	4.233572332642622e-07	1.144368671664673e-06	-1.797055910130863e-06	1.03661409204986e-07	6.288824597201187e-07	1.98747129871466e-07	3.999829749734062e-07
1.54	-0.3415961664256776	-0.01198690220219681	0.7803447674073136	1.016247607487085	-0.4258543678639455	-0.2393660510509976	-0.2120329933079451	0.7353050004406202	0.735305000440126	-0.1305088310142844	-0.1413135624249883	0.1178305762506776	-0.01388131469854854	0.7015700010267949	0.2974808129725726	0.5189921337927411	-2.522218704566001	0.2341100400650929	-0.726006724711972	0.3698948804558663	-2.090825910997056	-2.090825910996718	-0.1440991223085461	0.1396127883194715	-0.4327512937396886	0.04418381868575839	-0.1510600076357307	0.03099174713200899	-0.007803585547153849	-0.1930426710281583	0.04305155994848246	0.03561280813706511	0.1490561664871335	-17.48963468137044	-15.29140816791188	5.399684175556259	-6.860279297643565	-503.6263844759406	-57.29251562544483	-28.07091413369719	0.4446962203952547	0.613978190292776	-0.8055473998942644	-0.4500433326876594	0.6520610633631132	0.07107424086923739	1.356551612807752	-0.6281765803816661	-0.6281765803816873	0.1164367023836362	0.2066222299118535	-0.35170483503915	0.5097445193160238	3.892145070277103e-07	1.441451920556052e-06	-1.344095423360966e-06	1.944222571066887e-07	5.929920389089811e-07	2.826045606993252e-07	3.786917457629751e-07
1.55	-0.3345583522505313	-0.008981714974683717	0.7854935400046583	0.9910043247340676	-0.4234824064315304	-0.2466221867617146	-0.2082679521943624	0.7143676434841701	0.7143676434837383	-0.1319469584047815	-0.1399090476735469	0.1134858004145873	-0.01341595417136451	0.7058691589795069	0.3035137778921002	0.5106631794882509	-2.526076216914178	0.2402509581613681	-0.7251272165728678	0.3830556340147679	-2.09634165848924	-2.096341658488393	-0.1435136014989284	0.1412761282190574	-0.4361088232177225	0.04889702310530205	-0.1446476324578313	0.02902669548146954	-0.007528980568696984	-0.1911106763328134	0.04397965919510735	0.03505176015077133	0.1438401174379812	-17.00747325191457	-15.15240741488815	5.400641391872258	-6.914308799286718	-500.1074027439254	-57.88304795453477	-29.00449958292309	0.4039841306416003	0.5915719055916768	-0.8613059849598105	-0.299340702736768	0.5903880360496601	0.1107806163982903	1.287180990582378	-0.467789987328264	-0.4677899872520079	0.03174850894091621	0.1437266517351101	-0.3134596441526828	0.4533233372449118	4.395947670291127e-07	1.643984044542143e-06	-1.502275741927081e-06	2.123390635609973e-07	6.758902608437736e-07	3.659521317821255e-07	4.226821928502572e-07
